<?xml version="1.0" encoding="UTF-8"?>
<svg xmlns="http://www.w3.org/2000/svg" width="64" height="64" viewBox="0 0 64 64" role="img" aria-label="Partly cloudy">
  <!-- Sun -->
  <g>
    <circle cx="22" cy="22" r="10" fill="#f6c343"/>
    <g stroke="#f6c343" stroke-width="3" stroke-linecap="round">
      <line x1="22" y1="4"  x2="22" y2="10"/>
      <line x1="22" y1="34" x2="22" y2="40"/>
      <line x1="4"  y1="22" x2="10" y2="22"/>
      <line x1="34" y1="22" x2="40" y2="22"/>
      <line x1="10" y1="10" x2="14" y2="14"/>
      <line x1="30" y1="30" x2="34" y2="34"/>
      <line x1="10" y1="34" x2="14" y2="30"/>
      <line x1="30" y1="14" x2="34" y2="10"/>
    </g>
  </g>

  <!-- Cloud -->
  <path d="M44 50H22c-6.1 0-11-4.6-11-10.2 0-5.2 4.3-9.6 9.8-10.2C22.5 23.8 27.4 20 33.2 20c7 0 12.8 5.1 13.5 11.7 4.7 1 8.3 4.9 8.3 9.6C55 46.1 50.1 50 44 50z"
        fill="#e9eef3"/>
</svg>
